<svg xmlns="http://www.w3.org/2000/svg" viewBox="0 0 512 512"><defs><style>.cls-1{fill:none;}</style></defs><g id="レイヤー_2" data-name="レイヤー 2"><g id="編集モード"><rect class="cls-1" width="512" height="512"/><path d="M357.61,335l28.44-28.45a7.15,7.15,0,0,1,12.18,5.07V440.89a42.68,42.68,0,0,1-42.67,42.67H42.67A42.68,42.68,0,0,1,0,440.89V128A42.68,42.68,0,0,1,42.67,85.33H285.78a7.15,7.15,0,0,1,5.07,12.17L262.41,126a7.08,7.08,0,0,1-5.07,2H42.67v312.9H355.56V340A7,7,0,0,1,357.61,335Zm139.2-179.38L263.38,389.07,183,398a36.72,36.72,0,0,1-40.54-40.53l8.89-80.36L384.81,43.64a51.87,51.87,0,0,1,73.51,0L496.72,82a52.06,52.06,0,0,1,.09,73.6ZM409,183.11l-51.65-51.65L192.18,296.71l-6.49,58,58.05-6.49Zm57.6-70.85-38.4-38.4a9.28,9.28,0,0,0-13.16,0l-27.47,27.47L439.21,153l27.47-27.47A9.47,9.47,0,0,0,466.59,112.26Z"/></g></g></svg>