<svg xmlns="http://www.w3.org/2000/svg" viewBox="0 0 512 512"><defs><style>.cls-1{fill:none;}</style></defs><g id="レイヤー_2" data-name="レイヤー 2"><g id="編集モード"><rect class="cls-1" width="512" height="512"/><path d="M113.78,170.67H398.22V341.33H113.78ZM469.33,256A42.68,42.68,0,0,0,512,298.67V384a42.67,42.67,0,0,1-42.67,42.67H42.67A42.67,42.67,0,0,1,0,384V298.67A42.68,42.68,0,0,0,42.67,256,42.68,42.68,0,0,0,0,213.33V128A42.67,42.67,0,0,1,42.67,85.33H469.33A42.67,42.67,0,0,1,512,128v85.33A42.68,42.68,0,0,0,469.33,256Zm-42.66-92.44a21.33,21.33,0,0,0-21.34-21.34H106.67a21.33,21.33,0,0,0-21.34,21.34V348.44a21.33,21.33,0,0,0,21.34,21.34H405.33a21.33,21.33,0,0,0,21.34-21.34Z"/></g></g></svg>