<svg xmlns="http://www.w3.org/2000/svg" viewBox="0 0 512 512"><defs><style>.cls-1{fill:none;}</style></defs><g id="レイヤー_2" data-name="レイヤー 2"><g id="編集モード"><rect class="cls-1" width="512" height="512"/><path d="M485.78,179.14,346,158.75,283.47,32.05c-11.2-22.59-43.64-22.88-54.94,0L166,158.75,26.22,179.14C1.15,182.78-8.9,213.69,9.28,231.39L110.44,330,86.51,469.21c-4.3,25.17,22.21,44,44.41,32.25L256,435.71l125.08,65.75c22.2,11.67,48.71-7.08,44.41-32.25L401.56,330l101.16-98.57c18.18-17.7,8.13-48.61-16.94-52.25ZM352.27,313.89,375,446.34l-119-62.5-119,62.5,22.69-132.45L63.45,220.1l133-19.33L256,80.18l59.53,120.59,133,19.33-96.28,93.79Z"/></g></g></svg>