<svg xmlns="http://www.w3.org/2000/svg" viewBox="0 0 512 512"><defs><style>.cls-1{fill:none;}</style></defs><g id="レイヤー_2" data-name="レイヤー 2"><g id="編集モード"><rect class="cls-1" width="512" height="512"/><path d="M179,288H139a12,12,0,0,1-12-12V236a12,12,0,0,1,12-12h40a12,12,0,0,1,12,12v40A12,12,0,0,1,179,288Zm108-12V236a12,12,0,0,0-12-12H235a12,12,0,0,0-12,12v40a12,12,0,0,0,12,12h40A12,12,0,0,0,287,276Zm96,0V236a12,12,0,0,0-12-12H331a12,12,0,0,0-12,12v40a12,12,0,0,0,12,12h40A12,12,0,0,0,383,276Zm-96,96V332a12,12,0,0,0-12-12H235a12,12,0,0,0-12,12v40a12,12,0,0,0,12,12h40A12,12,0,0,0,287,372Zm-96,0V332a12,12,0,0,0-12-12H139a12,12,0,0,0-12,12v40a12,12,0,0,0,12,12h40A12,12,0,0,0,191,372Zm192,0V332a12,12,0,0,0-12-12H331a12,12,0,0,0-12,12v40a12,12,0,0,0,12,12h40A12,12,0,0,0,383,372Zm96-260V464a48,48,0,0,1-48,48H79a48,48,0,0,1-48-48V112A48,48,0,0,1,79,64h48V12A12,12,0,0,1,139,0h40a12,12,0,0,1,12,12V64H319V12A12,12,0,0,1,331,0h40a12,12,0,0,1,12,12V64h48A48,48,0,0,1,479,112ZM431,458V160H79V458a6,6,0,0,0,6,6H425A6,6,0,0,0,431,458Z"/></g></g></svg>