<svg xmlns="http://www.w3.org/2000/svg" viewBox="0 0 512 512"><defs><style>.cls-1{fill:none;}</style></defs><g id="レイヤー_2" data-name="レイヤー 2"><g id="編集モード"><rect class="cls-1" width="512" height="512"/><path d="M160,288H144a64.05,64.05,0,0,0-64,64.12v63.76A64.06,64.06,0,0,0,144,480h16a32,32,0,0,0,32-32.06V320.06A32,32,0,0,0,160,288Zm208,0H352a32,32,0,0,0-32,32.06V447.94A32,32,0,0,0,352,480h16a64.06,64.06,0,0,0,64-64.12V352.12A64.06,64.06,0,0,0,368,288ZM256,32C112.91,32,4.57,151.13,0,288V400a16,16,0,0,0,16,16H32a16,16,0,0,0,16-16V288C48,173.33,141.33,80.2,256,80.18S464,173.33,464,288V400a16,16,0,0,0,16,16h16a16,16,0,0,0,16-16V288C507.43,151.13,399.09,32,256,32Z"/></g></g></svg>