<svg xmlns="http://www.w3.org/2000/svg" viewBox="0 0 512 512"><defs><style>.cls-1{fill:none;}</style></defs><g id="レイヤー_2" data-name="レイヤー 2"><g id="編集モード"><rect class="cls-1" width="512" height="512"/><path d="M488,64h-8V84a12,12,0,0,1-12,12H428a12,12,0,0,1-12-12V64H96V84A12,12,0,0,1,84,96H44A12,12,0,0,1,32,84V64H24A23.94,23.94,0,0,0,0,88V424a23.94,23.94,0,0,0,24,24h8V428a12,12,0,0,1,12-12H84a12,12,0,0,1,12,12v20H416V428a12,12,0,0,1,12-12h40a12,12,0,0,1,12,12v20h8a23.94,23.94,0,0,0,24-24V88A23.94,23.94,0,0,0,488,64ZM96,372a12,12,0,0,1-12,12H44a12,12,0,0,1-12-12V332a12,12,0,0,1,12-12H84a12,12,0,0,1,12,12Zm0-96a12,12,0,0,1-12,12H44a12,12,0,0,1-12-12V236a12,12,0,0,1,12-12H84a12,12,0,0,1,12,12Zm0-96a12,12,0,0,1-12,12H44a12,12,0,0,1-12-12V140a12,12,0,0,1,12-12H84a12,12,0,0,1,12,12ZM368,388a12,12,0,0,1-12,12H156a12,12,0,0,1-12-12V292a12,12,0,0,1,12-12H356a12,12,0,0,1,12,12Zm0-168a12,12,0,0,1-12,12H156a12,12,0,0,1-12-12V124a12,12,0,0,1,12-12H356a12,12,0,0,1,12,12ZM480,372a12,12,0,0,1-12,12H428a12,12,0,0,1-12-12V332a12,12,0,0,1,12-12h40a12,12,0,0,1,12,12Zm0-96a12,12,0,0,1-12,12H428a12,12,0,0,1-12-12V236a12,12,0,0,1,12-12h40a12,12,0,0,1,12,12Zm0-96a12,12,0,0,1-12,12H428a12,12,0,0,1-12-12V140a12,12,0,0,1,12-12h40a12,12,0,0,1,12,12Z"/></g></g></svg>