<svg xmlns="http://www.w3.org/2000/svg" viewBox="0 0 512 512"><defs><style>.cls-1{fill:none;}</style></defs><g id="レイヤー_2" data-name="レイヤー 2"><g id="編集モード"><rect class="cls-1" width="512" height="512"/><path d="M490.67,85.33H99.56a42.73,42.73,0,0,0-40.22,28.45h-38A21.33,21.33,0,0,0,0,135.11V376.89a49.78,49.78,0,0,0,49.78,49.78H490.67A21.33,21.33,0,0,0,512,405.33V106.67A21.33,21.33,0,0,0,490.67,85.33Zm-448,291.56V156.44H56.89V376.89a7.11,7.11,0,0,1-14.22,0ZM469.33,384H99a50.53,50.53,0,0,0,.52-7.11V128H469.33ZM152.89,277.33H273.78a10.66,10.66,0,0,0,10.66-10.66V181.33a10.66,10.66,0,0,0-10.66-10.66H152.89a10.67,10.67,0,0,0-10.67,10.66v85.34A10.67,10.67,0,0,0,152.89,277.33Zm24.89-71.11h71.11v35.56H177.78ZM142.22,330.67V309.33a10.67,10.67,0,0,1,10.67-10.66H273.78a10.66,10.66,0,0,1,10.66,10.66v21.34a10.66,10.66,0,0,1-10.66,10.66H152.89A10.67,10.67,0,0,1,142.22,330.67Zm170.67,0V309.33a10.66,10.66,0,0,1,10.67-10.66H416a10.67,10.67,0,0,1,10.67,10.66v21.34A10.67,10.67,0,0,1,416,341.33H323.56A10.66,10.66,0,0,1,312.89,330.67Zm0-128V181.33a10.66,10.66,0,0,1,10.67-10.66H416a10.67,10.67,0,0,1,10.67,10.66v21.34A10.67,10.67,0,0,1,416,213.33H323.56A10.66,10.66,0,0,1,312.89,202.67Zm0,64V245.33a10.66,10.66,0,0,1,10.67-10.66H416a10.67,10.67,0,0,1,10.67,10.66v21.34A10.67,10.67,0,0,1,416,277.33H323.56A10.66,10.66,0,0,1,312.89,266.67Z"/></g></g></svg>